<?xml version="1.0" encoding="UTF-8" standalone="no"?>
<svg
   xmlns:dc="http://purl.org/dc/elements/1.1/"
   xmlns:cc="http://creativecommons.org/ns#"
   xmlns:rdf="http://www.w3.org/1999/02/22-rdf-syntax-ns#"
   xmlns:svg="http://www.w3.org/2000/svg"
   xmlns="http://www.w3.org/2000/svg"
   xmlns:xlink="http://www.w3.org/1999/xlink"
   xmlns:sodipodi="http://sodipodi.sourceforge.net/DTD/sodipodi-0.dtd"
   xmlns:inkscape="http://www.inkscape.org/namespaces/inkscape"
   version="1.1"
   width="24"
   height="24"
   id="svg3049"
   inkscape:version="0.92.3 (2405546, 2018-03-11)"
   sodipodi:docname="com.github.alonsoenrique.quotes.svg">
  <sodipodi:namedview
     pagecolor="#ffffff"
     bordercolor="#666666"
     borderopacity="1"
     objecttolerance="10"
     gridtolerance="10"
     guidetolerance="10"
     inkscape:pageopacity="0"
     inkscape:pageshadow="2"
     inkscape:window-width="2560"
     inkscape:window-height="1377"
     id="namedview51"
     showgrid="true"
     inkscape:zoom="7.375"
     inkscape:cx="-6.7822438"
     inkscape:cy="35.859917"
     inkscape:window-x="0"
     inkscape:window-y="30"
     inkscape:window-maximized="1"
     inkscape:current-layer="layer2"
     inkscape:snap-page="true"
     inkscape:snap-grids="false"
     showguides="false">
    <inkscape:grid
       type="xygrid"
       id="grid4179" />
  </sodipodi:namedview>
  <defs
     id="defs3051">
    <linearGradient
       id="linearGradient905">
      <stop
         id="stop897"
         style="stop-color:#ffffff;stop-opacity:1"
         offset="0" />
      <stop
         id="stop899"
         style="stop-color:#ffffff;stop-opacity:0.23529412"
         offset="0.36281249" />
      <stop
         id="stop901"
         style="stop-color:#ffffff;stop-opacity:0.15686275"
         offset="0.79466844" />
      <stop
         id="stop903"
         style="stop-color:#ffffff;stop-opacity:0.39215687"
         offset="1" />
    </linearGradient>
    <linearGradient
       x1="167.98311"
       y1="8.50811"
       x2="167.98311"
       y2="54.780239"
       id="linearGradient5228"
       xlink:href="#linearGradient5803"
       gradientUnits="userSpaceOnUse"
       gradientTransform="matrix(1.832495,0,0,1.8439152,-232.17581,-55.441403)" />
    <linearGradient
       id="linearGradient5803">
      <stop
         id="stop5805"
         style="stop-color:#fff5ef;stop-opacity:1"
         offset="0" />
      <stop
         id="stop5807"
         style="stop-color:#fef8dd;stop-opacity:1"
         offset="1" />
    </linearGradient>
    <linearGradient
       x1="23.99999"
       y1="4.999989"
       x2="23.99999"
       y2="43"
       id="linearGradient4136"
       xlink:href="#linearGradient3924"
       gradientUnits="userSpaceOnUse"
       gradientTransform="matrix(2.7297298,0,0,2.7297298,-1.5135175,-62.511681)" />
    <linearGradient
       id="linearGradient3924">
      <stop
         id="stop3926"
         style="stop-color:#ffffff;stop-opacity:1"
         offset="0" />
      <stop
         id="stop3928"
         style="stop-color:#ffffff;stop-opacity:0.23529412"
         offset="0.06316455" />
      <stop
         id="stop3930"
         style="stop-color:#ffffff;stop-opacity:0.15686275"
         offset="0.95056331" />
      <stop
         id="stop3932"
         style="stop-color:#ffffff;stop-opacity:0.39215687"
         offset="1" />
    </linearGradient>
    <radialGradient
       cx="6.7304144"
       cy="9.9571075"
       r="12.671875"
       fx="6.2001843"
       fy="9.9571075"
       id="radialGradient5264-4"
       xlink:href="#linearGradient2867-449-88-871-390-598-476-591-434-148-57-177-8-3-3-6-4-8-8-8"
       gradientUnits="userSpaceOnUse"
       gradientTransform="matrix(0,25.083279,-30.794253,0,372.81656,-272.08999)" />
    <linearGradient
       id="linearGradient2867-449-88-871-390-598-476-591-434-148-57-177-8-3-3-6-4-8-8-8">
      <stop
         id="stop3750-1-0-7-6-6-1-3-9"
         style="stop-color:#ffcd7d;stop-opacity:1"
         offset="0" />
      <stop
         id="stop3752-3-7-4-0-32-8-923-0"
         style="stop-color:#fc8f36;stop-opacity:1"
         offset="0.26238" />
      <stop
         id="stop3754-1-8-5-2-7-6-7-1"
         style="stop-color:#e23a0e;stop-opacity:1"
         offset="0.704952" />
      <stop
         id="stop3756-1-6-2-6-6-1-96-6"
         style="stop-color:#ac441f;stop-opacity:1"
         offset="1" />
    </linearGradient>
    <radialGradient
       cx="4.9929786"
       cy="43.5"
       r="2.5"
       fx="4.9929786"
       fy="43.5"
       id="radialGradient4093"
       xlink:href="#linearGradient3688-166-749-5"
       gradientUnits="userSpaceOnUse"
       gradientTransform="matrix(2.003784,0,0,1.4,27.98813,-17.4)" />
    <linearGradient
       id="linearGradient3688-166-749-5">
      <stop
         id="stop2883-0"
         style="stop-color:#181818;stop-opacity:1"
         offset="0" />
      <stop
         id="stop2885-5"
         style="stop-color:#181818;stop-opacity:0"
         offset="1" />
    </linearGradient>
    <radialGradient
       cx="4.9929786"
       cy="43.5"
       r="2.5"
       fx="4.9929786"
       fy="43.5"
       id="radialGradient4095"
       xlink:href="#linearGradient3688-464-309-8"
       gradientUnits="userSpaceOnUse"
       gradientTransform="matrix(2.003784,0,0,1.4,-20.01187,-104.4)" />
    <linearGradient
       id="linearGradient3688-464-309-8">
      <stop
         id="stop2889-9"
         style="stop-color:#181818;stop-opacity:1"
         offset="0" />
      <stop
         id="stop2891-4"
         style="stop-color:#181818;stop-opacity:0"
         offset="1" />
    </linearGradient>
    <linearGradient
       x1="25.058096"
       y1="47.027729"
       x2="25.058096"
       y2="39.999443"
       id="linearGradient4097"
       xlink:href="#linearGradient3702-501-757-0"
       gradientUnits="userSpaceOnUse" />
    <linearGradient
       id="linearGradient3702-501-757-0">
      <stop
         id="stop2895-0"
         style="stop-color:#181818;stop-opacity:0"
         offset="0" />
      <stop
         id="stop2897-2"
         style="stop-color:#181818;stop-opacity:1"
         offset="0.5" />
      <stop
         id="stop2899-6"
         style="stop-color:#181818;stop-opacity:0"
         offset="1" />
    </linearGradient>
    <linearGradient
       id="linearGradient3811">
      <stop
         id="stop3813"
         style="stop-color:#000000;stop-opacity:1"
         offset="0" />
      <stop
         id="stop3815"
         style="stop-color:#000000;stop-opacity:0"
         offset="1" />
    </linearGradient>
    <radialGradient
       cx="-4.0287771"
       cy="93.467628"
       r="35.338131"
       fx="-4.0287771"
       fy="93.467628"
       id="radialGradient6276"
       xlink:href="#linearGradient3811"
       gradientUnits="userSpaceOnUse"
       gradientTransform="matrix(1.5563924,0,0,0.16978827,70.270355,38.132099)" />
    <radialGradient
       xlink:href="#linearGradient3811"
       id="radialGradient3901"
       gradientUnits="userSpaceOnUse"
       gradientTransform="matrix(2.8888888,0,0,0.88888886,-208.11111,21.222222)"
       cx="26"
       cy="38"
       fx="26"
       fy="38"
       r="18" />
    <radialGradient
       xlink:href="#linearGradient4223"
       id="radialGradient3895"
       gradientUnits="userSpaceOnUse"
       gradientTransform="matrix(-2.2629402e-7,10.263208,12.075472,2.662038e-7,-174.16052,-349.97576)"
       cx="36"
       cy="19.018763"
       fx="36"
       fy="19.018763"
       r="26.5" />
    <linearGradient
       id="linearGradient4223">
      <stop
         offset="0"
         style="stop-color:#d1ff82;stop-opacity:1"
         id="stop4225" />
      <stop
         offset="0.26238"
         style="stop-color:#9bdb4d;stop-opacity:1"
         id="stop4227" />
      <stop
         offset="0.66093999"
         style="stop-color:#68b723;stop-opacity:1"
         id="stop4229" />
      <stop
         offset="1"
         style="stop-color:#3a9104;stop-opacity:1"
         id="stop4231" />
    </linearGradient>
    <linearGradient
       xlink:href="#linearGradient4546"
       id="linearGradient3897"
       gradientUnits="userSpaceOnUse"
       x1="36"
       y1="28"
       x2="36"
       y2="56"
       gradientTransform="matrix(2.0287128,0,0,2.034022,-191.52423,-14.912125)" />
    <linearGradient
       id="linearGradient4546">
      <stop
         offset="0"
         style="stop-color:#ffffff;stop-opacity:1"
         id="stop4548" />
      <stop
         offset="0.33333334"
         style="stop-color:#ffffff;stop-opacity:0.23529412"
         id="stop4550" />
      <stop
         offset="0.95056331"
         style="stop-color:#ffffff;stop-opacity:0.15686275"
         id="stop4552" />
      <stop
         offset="1"
         style="stop-color:#ffffff;stop-opacity:0.39215687"
         id="stop4554" />
    </linearGradient>
    <radialGradient
       xlink:href="#linearGradient3811"
       id="radialGradient3997"
       gradientUnits="userSpaceOnUse"
       gradientTransform="matrix(2.8888888,0,0,0.88888886,-192.11111,61.222222)"
       cx="26"
       cy="38"
       fx="26"
       fy="38"
       r="18" />
    <radialGradient
       xlink:href="#linearGradient4129"
       id="radialGradient3863"
       gradientUnits="userSpaceOnUse"
       gradientTransform="matrix(2.9275666e-7,9.055771,-12.679245,3.085139e-7,123.78646,-280.6486)"
       cx="34.800907"
       cy="19.739857"
       fx="34.800907"
       fy="19.739857"
       r="26.5" />
    <linearGradient
       id="linearGradient4129">
      <stop
         offset="0"
         style="stop-color:#8cd5ff;stop-opacity:1"
         id="stop4131" />
      <stop
         offset="0.26238"
         style="stop-color:#64baff;stop-opacity:1"
         id="stop4133" />
      <stop
         offset="0.704952"
         style="stop-color:#3689e6;stop-opacity:1"
         id="stop4135" />
      <stop
         offset="1"
         style="stop-color:#0d52bf;stop-opacity:1"
         id="stop4137" />
    </linearGradient>
    <linearGradient
       xlink:href="#linearGradient4546"
       id="linearGradient4259"
       gradientUnits="userSpaceOnUse"
       x1="36"
       y1="28"
       x2="36"
       y2="56"
       gradientTransform="matrix(-2.0183824,0,0,2.0183824,128.62133,-37.271994)" />
    <linearGradient
       inkscape:collect="always"
       xlink:href="#linearGradient905"
       id="linearGradient895"
       x1="71.429047"
       y1="4.4876375"
       x2="62.265858"
       y2="124.08086"
       gradientUnits="userSpaceOnUse" />
    <clipPath
       clipPathUnits="userSpaceOnUse"
       id="clipPath909">
      <path
         sodipodi:nodetypes="ssssscscccssss"
         id="path911"
         d="M 108.68503,13.172254 H 19.314965 c -5.273681,0 -9.5299835,4.256513 -9.5299835,9.529983 V 86.23546 c 0,5.273045 4.2563025,9.529983 9.5299835,9.529983 h 9.74176 v 21.060767 c 0,1.27066 0.762399,2.41426 1.969954,2.92231 1.143175,0.50849 2.540694,0.25435 3.43037,-0.69886 L 58.888617,95.765443 h 49.796413 c 5.27368,0 9.52998,-4.256938 9.52998,-9.529983 V 22.702237 c 0,-5.27347 -4.2563,-9.529983 -9.52998,-9.529983 z"
         style="fill:#9bdb4d;stroke-width:0.99999988"
         inkscape:connector-curvature="0" />
    </clipPath>
  </defs>
  <metadata
     id="metadata3054">
    <rdf:RDF>
      <cc:Work
         rdf:about="">
        <dc:format>image/svg+xml</dc:format>
        <dc:type
           rdf:resource="http://purl.org/dc/dcmitype/StillImage" />
        <dc:title></dc:title>
      </cc:Work>
    </rdf:RDF>
  </metadata>
  <g
     inkscape:groupmode="layer"
     id="layer2"
     inkscape:label="Layer 1"
     transform="translate(0,-104)"
     style="display:none">
    <rect
       style="opacity:1;fill:#d4d4d4;fill-opacity:0.20930236;stroke:none;stroke-width:6.19999886;stroke-linecap:round;stroke-linejoin:round;stroke-miterlimit:4;stroke-dasharray:none;stroke-opacity:1"
       id="rect960"
       width="24"
       height="24"
       x="0"
       y="104" />
    <rect
       style="opacity:0.07099998;fill:#000000;fill-opacity:1;stroke:none;stroke-width:1;stroke-linecap:round;stroke-linejoin:round;stroke-miterlimit:4;stroke-dasharray:none;stroke-opacity:0.6142857"
       id="rect1014"
       width="24"
       height="24"
       x="0"
       y="104" />
  </g>
  <g
     inkscape:groupmode="layer"
     id="layer3"
     inkscape:label="Layer 2"
     transform="translate(0,-104)">
    <path
       inkscape:connector-curvature="0"
       style="fill:#9bdb4d;stroke-width:0.99999988"
       d="M 20.378443,106.4698 H 3.621556 c -0.9888152,0 -1.786872,0.79809 -1.786872,1.78687 v 11.91248 c 0,0.9887 0.7980568,1.78687 1.786872,1.78687 h 1.8265801 v 3.94889 c 0,0.23826 0.1429499,0.45268 0.3693664,0.54794 0.214345,0.0953 0.47638,0.0477 0.643194,-0.13104 l 4.5809195,-4.36579 h 9.336827 c 0.988815,0 1.786872,-0.79817 1.786872,-1.78687 v -11.91248 c 0,-0.98878 -0.798057,-1.78687 -1.786872,-1.78687 z"
       id="path963"
       sodipodi:nodetypes="ssssscscccssss" />
    <path
       id="path917"
       d="m 16.126849,109.40254 h -1.375617 c -1.137818,0 -2.063424,0.9256 -2.063424,2.06342 v 1.37562 c 0,1.13781 0.925606,2.06342 2.063424,2.06342 h 1.375617 c 0.202536,0 0.394296,-0.0384 0.579317,-0.093 -0.271684,1.25136 -1.081417,2.32622 -2.262568,2.91681 -0.339868,0.16994 -0.47688,0.58304 -0.307633,0.9229 0.167551,0.33419 0.574732,0.47936 0.922901,0.30764 1.931778,-0.96591 3.131407,-2.90705 3.131407,-5.06653 0,-0.26325 0,-2.11598 0,-2.42682 0,-1.13786 -0.925607,-2.06342 -2.063424,-2.06342 z"
       style="opacity:0.15100002;fill:#000000;fill-opacity:1;stroke-width:0.99999964"
       inkscape:connector-curvature="0" />
    <path
       inkscape:connector-curvature="0"
       style="fill:#206b00;stroke-width:0.99999964"
       d="m 16.126849,109.21495 h -1.375617 c -1.137818,0 -2.063424,0.9256 -2.063424,2.06342 v 1.37562 c 0,1.13781 0.925606,2.06342 2.063424,2.06342 h 1.375617 c 0.202536,0 0.394296,-0.0384 0.579317,-0.093 -0.271684,1.25136 -1.081417,2.32622 -2.262568,2.91681 -0.339868,0.16994 -0.47688,0.58304 -0.307633,0.92291 0.167551,0.33418 0.574732,0.47935 0.922901,0.30763 1.931778,-0.96591 3.131407,-2.90704 3.131407,-5.06653 0,-0.26325 0,-2.11598 0,-2.42682 0,-1.13786 -0.925607,-2.06342 -2.063424,-2.06342 z"
       id="path967" />
    <path
       id="path919"
       d="M 9.2487683,109.40254 H 7.8731527 c -1.1378182,0 -2.0634242,0.9256 -2.0634242,2.06342 v 1.37562 c 0,1.13781 0.925606,2.06342 2.0634242,2.06342 h 1.3756156 c 0.2025367,0 0.3942974,-0.0384 0.579318,-0.093 -0.2716846,1.25136 -1.0814175,2.32622 -2.2625671,2.91681 -0.3398692,0.16994 -0.4768802,0.58304 -0.3076337,0.9229 0.16755,0.33419 0.574732,0.47936 0.9229008,0.30764 1.9317777,-0.96591 3.1314057,-2.90705 3.1314057,-5.06653 0,-0.26325 0,-2.11598 0,-2.42682 0,-1.13786 -0.925606,-2.06342 -2.0634237,-2.06342 z"
       style="opacity:0.15100002;fill:#000000;fill-opacity:1;stroke-width:0.99999964"
       inkscape:connector-curvature="0" />
    <path
       inkscape:connector-curvature="0"
       style="fill:#3a9104;stroke-width:0.99999964"
       d="M 9.2487683,109.21495 H 7.8731527 c -1.1378182,0 -2.0634242,0.9256 -2.0634242,2.06342 v 1.37562 c 0,1.13781 0.925606,2.06342 2.0634242,2.06342 h 1.3756156 c 0.2025367,0 0.3942974,-0.0384 0.579318,-0.093 -0.2716846,1.25136 -1.0814175,2.32622 -2.2625671,2.91681 -0.3398692,0.16994 -0.4768802,0.58304 -0.3076337,0.92291 0.16755,0.33418 0.574732,0.47935 0.9229008,0.30763 1.9317777,-0.96591 3.1314057,-2.90704 3.1314057,-5.06653 0,-0.26325 0,-2.11598 0,-2.42682 0,-1.13786 -0.925606,-2.06342 -2.0634237,-2.06342 z"
       id="path969" />
    <g
       style="stroke-width:4.54716063"
       id="g971"
       transform="matrix(0.21991745,0,0,0.21991745,7.7011343,7.7012419)" />
    <g
       style="stroke-width:4.54716063"
       id="g973"
       transform="matrix(0.21991745,0,0,0.21991745,7.7011343,7.7012419)" />
    <g
       style="stroke-width:4.54716063"
       id="g975"
       transform="matrix(0.21991745,0,0,0.21991745,7.7011343,7.7012419)" />
    <g
       style="stroke-width:4.54716063"
       id="g977"
       transform="matrix(0.21991745,0,0,0.21991745,7.7011343,7.7012419)" />
    <g
       style="stroke-width:4.54716063"
       id="g979"
       transform="matrix(0.21991745,0,0,0.21991745,7.7011343,7.7012419)" />
    <g
       style="stroke-width:4.54716063"
       id="g981"
       transform="matrix(0.21991745,0,0,0.21991745,7.7011343,7.7012419)" />
    <g
       style="stroke-width:4.54716063"
       id="g983"
       transform="matrix(0.21991745,0,0,0.21991745,7.7011343,7.7012419)" />
    <g
       style="stroke-width:4.54716063"
       id="g985"
       transform="matrix(0.21991745,0,0,0.21991745,7.7011343,7.7012419)" />
    <g
       style="stroke-width:4.54716063"
       id="g987"
       transform="matrix(0.21991745,0,0,0.21991745,7.7011343,7.7012419)" />
    <g
       style="stroke-width:4.54716063"
       id="g989"
       transform="matrix(0.21991745,0,0,0.21991745,7.7011343,7.7012419)" />
    <g
       style="stroke-width:4.54716063"
       id="g991"
       transform="matrix(0.21991745,0,0,0.21991745,7.7011343,7.7012419)" />
    <g
       style="stroke-width:4.54716063"
       id="g993"
       transform="matrix(0.21991745,0,0,0.21991745,7.7011343,7.7012419)" />
    <g
       style="stroke-width:4.54716063"
       id="g995"
       transform="matrix(0.21991745,0,0,0.21991745,7.7011343,7.7012419)" />
    <g
       style="stroke-width:4.54716063"
       id="g997"
       transform="matrix(0.21991745,0,0,0.21991745,7.7011343,7.7012419)" />
    <g
       style="stroke-width:4.54716063"
       id="g999"
       transform="matrix(0.21991745,0,0,0.21991745,7.7011343,7.7012419)" />
    <path
       sodipodi:nodetypes="ssssscscccssss"
       id="path887"
       d="M 108.68503,13.172254 H 19.314965 c -5.273681,0 -9.5299835,4.256513 -9.5299835,9.529983 V 86.23546 c 0,5.273045 4.2563025,9.529983 9.5299835,9.529983 h 9.74176 v 21.060767 c 0,1.27066 0.762399,2.41426 1.969954,2.92231 1.143175,0.50849 2.540694,0.25435 3.43037,-0.69886 L 58.888617,95.765443 h 49.796413 c 5.27368,0 9.52998,-4.256938 9.52998,-9.529983 V 22.702237 c 0,-5.27347 -4.2563,-9.529983 -9.52998,-9.529983 z"
       style="fill:none;stroke:url(#linearGradient895);stroke-width:10.66666698;stroke-miterlimit:4;stroke-dasharray:none;stroke-opacity:1"
       inkscape:connector-curvature="0"
       clip-path="url(#clipPath909)"
       transform="matrix(0.1875,0,0,0.1875,0,104)" />
    <path
       sodipodi:nodetypes="ssssscscccssss"
       id="path913"
       d="M 20.378443,106.4698 H 3.621556 c -0.9888152,0 -1.786872,0.79809 -1.786872,1.78687 v 11.91248 c 0,0.9887 0.7980568,1.78687 1.786872,1.78687 h 1.8265801 v 3.94889 c 0,0.23826 0.1429499,0.45268 0.3693664,0.54794 0.214345,0.0953 0.47638,0.0477 0.643194,-0.13104 l 4.5809195,-4.36579 h 9.336827 c 0.988815,0 1.786872,-0.79817 1.786872,-1.78687 v -11.91248 c 0,-0.98878 -0.798057,-1.78687 -1.786872,-1.78687 z"
       style="fill:none;stroke:#3a9104;stroke-width:1;stroke-miterlimit:4;stroke-dasharray:none;stroke-opacity:0.6142857"
       inkscape:connector-curvature="0" />
    <path
       inkscape:connector-curvature="0"
       style="opacity:0.07099998;fill:none;fill-opacity:1;stroke:#3a9104;stroke-width:1;stroke-miterlimit:4;stroke-dasharray:none;stroke-opacity:0.6142857"
       d="m 16.126849,109.40254 h -1.375617 c -1.137818,0 -2.063424,0.9256 -2.063424,2.06342 v 1.37562 c 0,1.13781 0.925606,2.06342 2.063424,2.06342 h 1.375617 c 0.202536,0 0.394296,-0.0384 0.579317,-0.093 -0.271684,1.25136 -1.081417,2.32622 -2.262568,2.91681 -0.339868,0.16994 -0.47688,0.58304 -0.307633,0.9229 0.167551,0.33419 0.574732,0.47936 0.922901,0.30764 1.931778,-0.96591 3.131407,-2.90705 3.131407,-5.06653 0,-0.26325 0,-2.11598 0,-2.42682 0,-1.13786 -0.925607,-2.06342 -2.063424,-2.06342 z"
       id="path921" />
    <path
       inkscape:connector-curvature="0"
       style="opacity:0.07099998;fill:none;fill-opacity:1;stroke:#3a9104;stroke-width:1;stroke-miterlimit:4;stroke-dasharray:none;stroke-opacity:0.6142857"
       d="M 9.2487683,109.40254 H 7.8731527 c -1.1378182,0 -2.0634242,0.9256 -2.0634242,2.06342 v 1.37562 c 0,1.13781 0.925606,2.06342 2.0634242,2.06342 h 1.3756156 c 0.2025367,0 0.3942974,-0.0384 0.579318,-0.093 -0.2716846,1.25136 -1.0814175,2.32622 -2.2625671,2.91681 -0.3398692,0.16994 -0.4768802,0.58304 -0.3076337,0.9229 0.16755,0.33419 0.574732,0.47936 0.9229008,0.30764 1.9317777,-0.96591 3.1314057,-2.90705 3.1314057,-5.06653 0,-0.26325 0,-2.11598 0,-2.42682 0,-1.13786 -0.925606,-2.06342 -2.0634237,-2.06342 z"
       id="path923" />
  </g>
</svg>
